:SAMPLES-PER-SECOND 30
:FULLY-SPECIFIED
:DEGREES
17
root  74.479 40.1074 -6.97914 -71.2724 -87.5171 67.0838
RightUpLeg  3.17292 -11.5368 -10.3156
RightLeg  9.41196 2.06698 3.06632
RightFoot  -12.3642 0.00829441 10.4826
RightToes  5.82063e-011 0 -3.6325e-017
Spine  2.5667 -0.877362 -0.47719
Spine1  8.79764 -0.495168 -1.53067
HEad  -3.13196 2.38144 -1.49315
LeftShoulder1  2.22431 -5.45205 -18.1968
LeftArm  -30.2283 14.0458 -9.70614
LeftForeArm  10.2464 -12.7648 0.505473
LeftHand  -0.244104 0.0205437 5.32207
RightShoulder  0.898528 1.00762 12.9131
RightArm  -32.5371 -7.66706 14.3893
RightForeArm  -8.56679 15.9088 3.50491
RightHand  -2.96907 8.5322 -24.7157
LeftUpLeg  1.44622 6.07061 -0.552211
LeftLeg  10.2907 16.6709 0.0509469
LeftFoot  -10.8903 0.06268 0.689841
LeftToes  -1.33699e-010 -8.10125e-011 -3.35536e-011
18
root  74.2925 40.0808 -6.79942 -62.312 -87.3837 58.2224
RightUpLeg  3.72211 -11.8072 -10.8232
RightLeg  9.04958 2.27847 3.35118
RightFoot  -12.7802 0.0501622 10.9115
RightToes  5.82063e-011 0 -3.6325e-017
Spine  2.05156 -0.795681 0.00608341
Spine1  9.69197 -0.374817 -1.61217
HEad  -2.86825 2.21469 -1.57264
LeftShoulder1  2.56483 -5.91203 -20.789
LeftArm  -33.558 15.1998 -11.1882
LeftForeArm  15.9973 -17.1943 -1.12183
LeftHand  -0.244104 0.0205437 5.32207
RightShoulder  1.12134 1.67071 14.8404
RightArm  -30.0234 -10.6016 16.1961
RightForeArm  -6.42734 21.8903 5.03615
RightHand  -2.92045 8.20732 -24.8799
LeftUpLeg  1.40157 6.32476 -0.826988
LeftLeg  10.8242 16.2039 0.345901
LeftFoot  -11.7638 0.0727821 0.623829
LeftToes  -1.33699e-010 -8.10125e-011 -3.35536e-011
19
root  74.0888 40.037 -6.59786 -60.4334 -87.3556 56.2259
RightUpLeg  4.07987 -12.036 -11.2117
RightLeg  9.31618 2.26224 3.20332
RightFoot  -12.7516 0.0513281 11.1948
RightToes  5.82063e-011 0 -3.6325e-017
Spine  2.0924 -0.618858 0.578492
Spine1  10.3139 -0.0886162 -1.94874
HEad  -3.40176 2.34206 -1.0443
LeftShoulder1  2.8374 -6.09738 -23.2413
LeftArm  -34.6329 15.6813 -12.8578
LeftForeArm  22.7326 -19.9865 -2.40398
LeftHand  -0.244104 0.0205437 5.32207
RightShoulder  1.43308 2.45635 17.4313
RightArm  -26.8257 -13.2096 18.0033
RightForeArm  -1.98901 27.2712 5.9802
RightHand  -2.60288 7.24947 -23.8844
LeftUpLeg  1.74407 6.72242 -0.994292
LeftLeg  11.1992 15.7897 0.446885
LeftFoot  -12.5068 0.0768558 0.186396
LeftToes  -1.33699e-010 -8.10125e-011 -3.35536e-011
20
root  73.8725 39.9641 -6.38014 -55.5873 -87.2289 51.0215
RightUpLeg  4.28886 -12.6585 -11.5474
RightLeg  10.4444 2.53405 2.82049
RightFoot  -12.6716 0.0405717 10.9093
RightToes  5.82063e-011 0 -3.6325e-017
Spine  2.42213 -0.56581 1.09158
Spine1  11.144 0.084436 -2.32942
HEad  -3.46306 2.07813 -1.01252
LeftShoulder1  3.08256 -6.20456 -25.5353
LeftArm  -33.4258 15.0561 -14.6637
LeftForeArm  27.5356 -20.3867 -2.43666
LeftHand  -0.244104 0.0205437 5.32207
RightShoulder  1.81208 3.30756 20.2049
RightArm  -24.1128 -15.3376 20.1358
RightForeArm  4.64794 31.334 6.61815
RightHand  -1.99892 5.49053 -21.3593
LeftUpLeg  2.34201 7.07473 -1.11273
LeftLeg  11.5981 15.1001 0.540343
LeftFoot  -13.0217 0.0698033 -0.57351
LeftToes  -1.33699e-010 -8.10125e-011 -3.35536e-011
21
root  73.6616 39.8445 -6.17076 -50.2917 -86.9941 45.332
RightUpLeg  3.7342 -13.6814 -11.6552
RightLeg  12.917 3.70736 2.18354
RightFoot  -12.6774 0.0253237 9.54581
RightToes  5.82063e-011 0 -3.6325e-017
Spine  2.82192 -0.542094 1.30033
Spine1  12.1827 0.170391 -2.5944
HEad  -3.68306 1.60559 -0.821644
LeftShoulder1  3.4247 -6.597 -27.7615
LeftArm  -31.392 13.6112 -16.4552
LeftForeArm  28.2783 -18.4128 -1.64211
LeftHand  -0.244104 0.0205437 5.32207
RightShoulder  2.18783 4.05336 22.7141
RightArm  -21.5262 -16.9362 22.8597
RightForeArm  12.3713 33.9933 6.86732
RightHand  -1.21099 2.8122 -17.1779
LeftUpLeg  2.81235 7.60933 -1.14609
LeftLeg  12.3157 14.1129 0.555765
LeftFoot  -13.4217 0.0544478 -1.43341
LeftToes  -1.33699e-010 -8.10125e-011 -3.35536e-011
